# Blender v2.63 (sub 0) OBJ File: 'cube.blend'
# www.blender.org
mtllib cube.mtl
o Cube
v -1.000000 -1.000000 1.000000
v -1.000000 -1.000000 -1.000000
v 1.000000 -1.000000 -1.000000
v 1.000000 -1.000000 1.000000
v -1.000000 1.000000 1.000000
v -1.000000 1.000000 -1.000000
v 1.000000 1.000000 -1.000000
v 1.000000 1.000000 1.000000
vt 0.333333 0.001019
vt 0.665647 0.000000
vt 0.666667 0.332314
vt 0.334353 0.333333
vt 0.001020 0.333333
vt 0.000000 0.001020
vt 0.332314 0.000000
vt 0.333333 0.332314
vt 0.333333 0.665647
vt 0.001019 0.666667
vt 0.000000 0.334353
vt 0.332314 0.333333
vt 0.665647 0.333333
vt 0.666667 0.665647
vt 0.334353 0.666667
vt 0.333333 0.334353
vt 1.000000 0.332314
vt 0.667686 0.333333
vt 0.666667 0.001019
vt 0.998980 0.000000
vt 0.333333 0.667686
vt 0.665647 0.666667
vt 0.666667 0.998980
vt 0.334353 1.000000
vn -1.000000 -0.000000 0.000000
vn 0.000000 0.000000 -1.000000
vn 1.000000 -0.000000 0.000000
vn 0.000000 0.000000 1.000000
vn -0.000000 -1.000000 0.000000
vn -0.000000 1.000000 0.000000
usemtl _white_plastic.jpg
s off
f 2/1/1 1/2/1 5/3/1
f 2/1/1 5/3/1 6/4/1
f 6/5/2 7/6/2 3/7/2
f 6/5/2 3/7/2 2/8/2
f 7/9/3 8/10/3 4/11/3
f 7/9/3 4/11/3 3/12/3
f 1/13/4 4/14/4 8/15/4
f 1/13/4 8/15/4 5/16/4
f 1/17/5 2/18/5 3/19/5
f 1/17/5 3/19/5 4/20/5
f 8/21/6 7/22/6 6/23/6
f 8/21/6 6/23/6 5/24/6
